<mxfile host="app.diagrams.net" agent="Mozilla/5.0 (Windows NT 10.0; Win64; x64) AppleWebKit/537.36 (KHTML, like Gecko) Chrome/132.0.0.0 Safari/537.36" version="26.0.16">
  <diagram name="Page-1" id="RmVLblM2S5mu6TlCKGeN">
    <mxGraphModel dx="1560" dy="893" grid="0" gridSize="10" guides="1" tooltips="1" connect="1" arrows="1" fold="1" page="0" pageScale="1" pageWidth="850" pageHeight="1100" math="0" shadow="0">
      <root>
        <mxCell id="0" />
        <mxCell id="1" parent="0" />
        <mxCell id="d8O3bmcDUkVZxXgSkSSW-21" value="" style="group" vertex="1" connectable="0" parent="1">
          <mxGeometry x="114" y="339" width="46" height="82" as="geometry" />
        </mxCell>
        <mxCell id="d8O3bmcDUkVZxXgSkSSW-19" value="" style="rounded=0;whiteSpace=wrap;html=1;" vertex="1" parent="d8O3bmcDUkVZxXgSkSSW-21">
          <mxGeometry width="46" height="82" as="geometry" />
        </mxCell>
        <mxCell id="d8O3bmcDUkVZxXgSkSSW-20" value="" style="triangle;whiteSpace=wrap;html=1;" vertex="1" parent="d8O3bmcDUkVZxXgSkSSW-21">
          <mxGeometry y="53.61538461538462" width="13.142857142857142" height="22.076923076923077" as="geometry" />
        </mxCell>
        <mxCell id="d8O3bmcDUkVZxXgSkSSW-39" value="" style="edgeStyle=none;curved=1;rounded=0;orthogonalLoop=1;jettySize=auto;html=1;fontSize=12;startSize=8;endSize=8;" edge="1" parent="1" source="d8O3bmcDUkVZxXgSkSSW-33" target="d8O3bmcDUkVZxXgSkSSW-19">
          <mxGeometry relative="1" as="geometry" />
        </mxCell>
        <mxCell id="d8O3bmcDUkVZxXgSkSSW-33" value="" style="shape=trapezoid;perimeter=trapezoidPerimeter;whiteSpace=wrap;html=1;fixedSize=1;rotation=90;container=0;" vertex="1" parent="1">
          <mxGeometry x="47" y="368" width="72" height="20" as="geometry" />
        </mxCell>
        <mxCell id="d8O3bmcDUkVZxXgSkSSW-42" value="" style="rounded=0;whiteSpace=wrap;html=1;" vertex="1" parent="1">
          <mxGeometry x="104" y="254" width="35" height="25" as="geometry" />
        </mxCell>
        <mxCell id="d8O3bmcDUkVZxXgSkSSW-75" style="edgeStyle=none;curved=1;rounded=0;orthogonalLoop=1;jettySize=auto;html=1;entryX=0.25;entryY=1;entryDx=0;entryDy=0;fontSize=12;startSize=8;endSize=8;exitX=1.01;exitY=0.403;exitDx=0;exitDy=0;exitPerimeter=0;" edge="1" parent="1" source="d8O3bmcDUkVZxXgSkSSW-46" target="d8O3bmcDUkVZxXgSkSSW-73">
          <mxGeometry relative="1" as="geometry" />
        </mxCell>
        <mxCell id="d8O3bmcDUkVZxXgSkSSW-46" value="" style="rounded=0;whiteSpace=wrap;html=1;" vertex="1" parent="1">
          <mxGeometry x="191" y="340" width="66" height="157" as="geometry" />
        </mxCell>
        <mxCell id="d8O3bmcDUkVZxXgSkSSW-48" style="edgeStyle=none;curved=1;rounded=0;orthogonalLoop=1;jettySize=auto;html=1;entryX=0;entryY=0.25;entryDx=0;entryDy=0;fontSize=12;startSize=8;endSize=8;" edge="1" parent="1" source="d8O3bmcDUkVZxXgSkSSW-19" target="d8O3bmcDUkVZxXgSkSSW-46">
          <mxGeometry relative="1" as="geometry" />
        </mxCell>
        <mxCell id="d8O3bmcDUkVZxXgSkSSW-49" value="" style="rounded=0;whiteSpace=wrap;html=1;" vertex="1" parent="1">
          <mxGeometry x="474" y="182" width="98" height="169" as="geometry" />
        </mxCell>
        <mxCell id="d8O3bmcDUkVZxXgSkSSW-52" value="" style="endArrow=classic;html=1;rounded=0;fontSize=12;startSize=8;endSize=8;curved=0;entryX=0.008;entryY=0.195;entryDx=0;entryDy=0;entryPerimeter=0;" edge="1" parent="1" target="d8O3bmcDUkVZxXgSkSSW-49">
          <mxGeometry width="50" height="50" relative="1" as="geometry">
            <mxPoint x="428" y="215" as="sourcePoint" />
            <mxPoint x="435" y="220" as="targetPoint" />
            <Array as="points" />
          </mxGeometry>
        </mxCell>
        <mxCell id="d8O3bmcDUkVZxXgSkSSW-68" style="edgeStyle=none;curved=0;rounded=0;orthogonalLoop=1;jettySize=auto;html=1;fontSize=12;startSize=8;endSize=8;entryX=0.75;entryY=1;entryDx=0;entryDy=0;" edge="1" parent="1" source="d8O3bmcDUkVZxXgSkSSW-53" target="d8O3bmcDUkVZxXgSkSSW-66">
          <mxGeometry relative="1" as="geometry">
            <mxPoint x="787" y="368" as="targetPoint" />
            <Array as="points">
              <mxPoint x="741" y="419" />
              <mxPoint x="741" y="367" />
            </Array>
          </mxGeometry>
        </mxCell>
        <mxCell id="d8O3bmcDUkVZxXgSkSSW-140" style="edgeStyle=none;curved=1;rounded=0;orthogonalLoop=1;jettySize=auto;html=1;fontSize=12;startSize=8;endSize=8;" edge="1" parent="1" source="d8O3bmcDUkVZxXgSkSSW-53" target="d8O3bmcDUkVZxXgSkSSW-141">
          <mxGeometry relative="1" as="geometry">
            <mxPoint x="1036" y="420" as="targetPoint" />
            <Array as="points">
              <mxPoint x="760" y="420" />
            </Array>
          </mxGeometry>
        </mxCell>
        <mxCell id="d8O3bmcDUkVZxXgSkSSW-53" value="" style="rounded=0;whiteSpace=wrap;html=1;" vertex="1" parent="1">
          <mxGeometry x="517" y="390" width="114" height="57" as="geometry" />
        </mxCell>
        <mxCell id="d8O3bmcDUkVZxXgSkSSW-54" value="" style="endArrow=classic;html=1;rounded=0;fontSize=12;startSize=8;endSize=8;curved=1;entryX=0.09;entryY=0.013;entryDx=0;entryDy=0;entryPerimeter=0;" edge="1" parent="1" target="d8O3bmcDUkVZxXgSkSSW-63">
          <mxGeometry width="50" height="50" relative="1" as="geometry">
            <mxPoint x="430" y="408" as="sourcePoint" />
            <mxPoint x="427" y="557" as="targetPoint" />
          </mxGeometry>
        </mxCell>
        <mxCell id="d8O3bmcDUkVZxXgSkSSW-58" value="" style="group" vertex="1" connectable="0" parent="1">
          <mxGeometry x="335" y="369" width="56" height="78" as="geometry" />
        </mxCell>
        <mxCell id="d8O3bmcDUkVZxXgSkSSW-59" value="" style="rounded=0;whiteSpace=wrap;html=1;" vertex="1" parent="d8O3bmcDUkVZxXgSkSSW-58">
          <mxGeometry width="56" height="78" as="geometry" />
        </mxCell>
        <mxCell id="d8O3bmcDUkVZxXgSkSSW-60" value="" style="triangle;whiteSpace=wrap;html=1;" vertex="1" parent="d8O3bmcDUkVZxXgSkSSW-58">
          <mxGeometry y="51" width="16" height="21" as="geometry" />
        </mxCell>
        <mxCell id="d8O3bmcDUkVZxXgSkSSW-62" style="edgeStyle=none;curved=0;rounded=0;orthogonalLoop=1;jettySize=auto;html=1;entryX=0.001;entryY=0.075;entryDx=0;entryDy=0;entryPerimeter=0;fontSize=12;startSize=8;endSize=8;" edge="1" parent="1" source="d8O3bmcDUkVZxXgSkSSW-59" target="d8O3bmcDUkVZxXgSkSSW-49">
          <mxGeometry relative="1" as="geometry">
            <Array as="points">
              <mxPoint x="430" y="408" />
              <mxPoint x="428" y="195" />
            </Array>
          </mxGeometry>
        </mxCell>
        <mxCell id="d8O3bmcDUkVZxXgSkSSW-107" style="edgeStyle=none;curved=1;rounded=0;orthogonalLoop=1;jettySize=auto;html=1;fontSize=12;startSize=8;endSize=8;" edge="1" parent="1">
          <mxGeometry relative="1" as="geometry">
            <mxPoint x="1065.996539465863" y="837.0000000000002" as="targetPoint" />
            <mxPoint x="589.28" y="837.0000000000002" as="sourcePoint" />
          </mxGeometry>
        </mxCell>
        <mxCell id="d8O3bmcDUkVZxXgSkSSW-112" style="edgeStyle=none;curved=1;rounded=0;orthogonalLoop=1;jettySize=auto;html=1;fontSize=12;startSize=8;endSize=8;" edge="1" parent="1">
          <mxGeometry relative="1" as="geometry">
            <mxPoint x="652.128169133113" y="771" as="targetPoint" />
            <mxPoint x="590" y="771" as="sourcePoint" />
          </mxGeometry>
        </mxCell>
        <mxCell id="d8O3bmcDUkVZxXgSkSSW-63" value="" style="rounded=0;whiteSpace=wrap;html=1;" vertex="1" parent="1">
          <mxGeometry x="412" y="719" width="178" height="136" as="geometry" />
        </mxCell>
        <mxCell id="d8O3bmcDUkVZxXgSkSSW-64" value="" style="endArrow=classic;html=1;rounded=0;fontSize=12;startSize=8;endSize=8;curved=1;" edge="1" parent="1" target="d8O3bmcDUkVZxXgSkSSW-53">
          <mxGeometry width="50" height="50" relative="1" as="geometry">
            <mxPoint x="430" y="419" as="sourcePoint" />
            <mxPoint x="514" y="407" as="targetPoint" />
          </mxGeometry>
        </mxCell>
        <mxCell id="d8O3bmcDUkVZxXgSkSSW-65" value="" style="shape=trapezoid;perimeter=trapezoidPerimeter;whiteSpace=wrap;html=1;fixedSize=1;rotation=90;container=0;" vertex="1" parent="1">
          <mxGeometry x="765" y="227" width="72" height="20" as="geometry" />
        </mxCell>
        <mxCell id="d8O3bmcDUkVZxXgSkSSW-66" value="" style="shape=trapezoid;perimeter=trapezoidPerimeter;whiteSpace=wrap;html=1;fixedSize=1;rotation=90;container=0;" vertex="1" parent="1">
          <mxGeometry x="765" y="339" width="72" height="20" as="geometry" />
        </mxCell>
        <mxCell id="d8O3bmcDUkVZxXgSkSSW-69" style="edgeStyle=none;curved=1;rounded=0;orthogonalLoop=1;jettySize=auto;html=1;entryX=0.302;entryY=0.942;entryDx=0;entryDy=0;entryPerimeter=0;fontSize=12;startSize=8;endSize=8;" edge="1" parent="1" target="d8O3bmcDUkVZxXgSkSSW-66">
          <mxGeometry relative="1" as="geometry">
            <mxPoint x="573" y="335" as="sourcePoint" />
          </mxGeometry>
        </mxCell>
        <mxCell id="d8O3bmcDUkVZxXgSkSSW-70" style="edgeStyle=none;curved=1;rounded=0;orthogonalLoop=1;jettySize=auto;html=1;entryX=0.815;entryY=0.942;entryDx=0;entryDy=0;entryPerimeter=0;fontSize=12;startSize=8;endSize=8;" edge="1" parent="1">
          <mxGeometry relative="1" as="geometry">
            <mxPoint x="573" y="251.32" as="sourcePoint" />
            <mxPoint x="792.1600000000001" y="250.9999999999999" as="targetPoint" />
          </mxGeometry>
        </mxCell>
        <mxCell id="d8O3bmcDUkVZxXgSkSSW-71" style="edgeStyle=none;curved=0;rounded=0;orthogonalLoop=1;jettySize=auto;html=1;entryX=0.324;entryY=1.056;entryDx=0;entryDy=0;entryPerimeter=0;fontSize=12;startSize=8;endSize=8;" edge="1" parent="1" source="d8O3bmcDUkVZxXgSkSSW-42" target="d8O3bmcDUkVZxXgSkSSW-33">
          <mxGeometry relative="1" as="geometry">
            <Array as="points">
              <mxPoint x="41" y="267" />
              <mxPoint x="42" y="365" />
            </Array>
          </mxGeometry>
        </mxCell>
        <mxCell id="d8O3bmcDUkVZxXgSkSSW-72" value="" style="endArrow=classic;html=1;rounded=0;fontSize=12;startSize=8;endSize=8;curved=0;entryX=1;entryY=0.5;entryDx=0;entryDy=0;" edge="1" parent="1" target="d8O3bmcDUkVZxXgSkSSW-42">
          <mxGeometry width="50" height="50" relative="1" as="geometry">
            <mxPoint x="173" y="379" as="sourcePoint" />
            <mxPoint x="176" y="273" as="targetPoint" />
            <Array as="points">
              <mxPoint x="173" y="267" />
            </Array>
          </mxGeometry>
        </mxCell>
        <mxCell id="d8O3bmcDUkVZxXgSkSSW-73" value="" style="shape=trapezoid;perimeter=trapezoidPerimeter;whiteSpace=wrap;html=1;fixedSize=1;rotation=90;container=0;" vertex="1" parent="1">
          <mxGeometry x="267" y="412" width="72" height="20" as="geometry" />
        </mxCell>
        <mxCell id="d8O3bmcDUkVZxXgSkSSW-74" style="edgeStyle=none;curved=1;rounded=0;orthogonalLoop=1;jettySize=auto;html=1;entryX=-0.004;entryY=0.679;entryDx=0;entryDy=0;entryPerimeter=0;fontSize=12;startSize=8;endSize=8;" edge="1" parent="1" source="d8O3bmcDUkVZxXgSkSSW-73" target="d8O3bmcDUkVZxXgSkSSW-59">
          <mxGeometry relative="1" as="geometry" />
        </mxCell>
        <mxCell id="d8O3bmcDUkVZxXgSkSSW-76" value="" style="endArrow=classic;html=1;rounded=0;fontSize=12;startSize=8;endSize=8;curved=0;entryX=0.678;entryY=1.017;entryDx=0;entryDy=0;entryPerimeter=0;" edge="1" parent="1" target="d8O3bmcDUkVZxXgSkSSW-73">
          <mxGeometry width="50" height="50" relative="1" as="geometry">
            <mxPoint x="233" y="520" as="sourcePoint" />
            <mxPoint x="281" y="497" as="targetPoint" />
            <Array as="points">
              <mxPoint x="277" y="520" />
              <mxPoint x="277" y="435" />
            </Array>
          </mxGeometry>
        </mxCell>
        <mxCell id="d8O3bmcDUkVZxXgSkSSW-77" value="" style="group" vertex="1" connectable="0" parent="1">
          <mxGeometry x="333" y="65" width="56" height="78" as="geometry" />
        </mxCell>
        <mxCell id="d8O3bmcDUkVZxXgSkSSW-78" value="" style="rounded=0;whiteSpace=wrap;html=1;" vertex="1" parent="d8O3bmcDUkVZxXgSkSSW-77">
          <mxGeometry width="56" height="78" as="geometry" />
        </mxCell>
        <mxCell id="d8O3bmcDUkVZxXgSkSSW-79" value="" style="triangle;whiteSpace=wrap;html=1;" vertex="1" parent="d8O3bmcDUkVZxXgSkSSW-77">
          <mxGeometry y="51" width="16" height="21" as="geometry" />
        </mxCell>
        <mxCell id="d8O3bmcDUkVZxXgSkSSW-80" value="" style="endArrow=classic;html=1;rounded=0;fontSize=12;startSize=8;endSize=8;curved=0;entryX=0;entryY=0.372;entryDx=0;entryDy=0;entryPerimeter=0;" edge="1" parent="1">
          <mxGeometry width="50" height="50" relative="1" as="geometry">
            <mxPoint x="172" y="266.98" as="sourcePoint" />
            <mxPoint x="333" y="92.99600000000002" as="targetPoint" />
            <Array as="points">
              <mxPoint x="172" y="93.98" />
            </Array>
          </mxGeometry>
        </mxCell>
        <mxCell id="d8O3bmcDUkVZxXgSkSSW-91" style="edgeStyle=none;curved=1;rounded=0;orthogonalLoop=1;jettySize=auto;html=1;exitX=1;exitY=0.5;exitDx=0;exitDy=0;fontSize=12;startSize=8;endSize=8;entryX=0;entryY=0.5;entryDx=0;entryDy=0;" edge="1" parent="1" source="d8O3bmcDUkVZxXgSkSSW-82" target="d8O3bmcDUkVZxXgSkSSW-89">
          <mxGeometry relative="1" as="geometry">
            <mxPoint x="1072.7181816101074" y="293.75" as="targetPoint" />
          </mxGeometry>
        </mxCell>
        <mxCell id="d8O3bmcDUkVZxXgSkSSW-82" value="" style="shape=step;perimeter=stepPerimeter;whiteSpace=wrap;html=1;fixedSize=1;size=58.48332056505956;" vertex="1" parent="1">
          <mxGeometry x="917" y="199" width="100" height="189" as="geometry" />
        </mxCell>
        <mxCell id="d8O3bmcDUkVZxXgSkSSW-83" style="edgeStyle=none;curved=1;rounded=0;orthogonalLoop=1;jettySize=auto;html=1;entryX=0.26;entryY=0.199;entryDx=0;entryDy=0;entryPerimeter=0;fontSize=12;startSize=8;endSize=8;" edge="1" parent="1" source="d8O3bmcDUkVZxXgSkSSW-65" target="d8O3bmcDUkVZxXgSkSSW-82">
          <mxGeometry relative="1" as="geometry" />
        </mxCell>
        <mxCell id="d8O3bmcDUkVZxXgSkSSW-84" style="edgeStyle=none;curved=1;rounded=0;orthogonalLoop=1;jettySize=auto;html=1;exitX=0.5;exitY=0;exitDx=0;exitDy=0;entryX=0.228;entryY=0.797;entryDx=0;entryDy=0;entryPerimeter=0;fontSize=12;startSize=8;endSize=8;" edge="1" parent="1" source="d8O3bmcDUkVZxXgSkSSW-66" target="d8O3bmcDUkVZxXgSkSSW-82">
          <mxGeometry relative="1" as="geometry" />
        </mxCell>
        <mxCell id="d8O3bmcDUkVZxXgSkSSW-88" value="" style="group" vertex="1" connectable="0" parent="1">
          <mxGeometry x="1067" y="254.5" width="56" height="78" as="geometry" />
        </mxCell>
        <mxCell id="d8O3bmcDUkVZxXgSkSSW-89" value="" style="rounded=0;whiteSpace=wrap;html=1;" vertex="1" parent="d8O3bmcDUkVZxXgSkSSW-88">
          <mxGeometry width="56" height="78" as="geometry" />
        </mxCell>
        <mxCell id="d8O3bmcDUkVZxXgSkSSW-90" value="" style="triangle;whiteSpace=wrap;html=1;" vertex="1" parent="d8O3bmcDUkVZxXgSkSSW-88">
          <mxGeometry y="51" width="16" height="21" as="geometry" />
        </mxCell>
        <mxCell id="d8O3bmcDUkVZxXgSkSSW-92" value="" style="group" vertex="1" connectable="0" parent="1">
          <mxGeometry x="1066" y="70" width="56" height="78" as="geometry" />
        </mxCell>
        <mxCell id="d8O3bmcDUkVZxXgSkSSW-93" value="" style="rounded=0;whiteSpace=wrap;html=1;" vertex="1" parent="d8O3bmcDUkVZxXgSkSSW-92">
          <mxGeometry y="-6" width="56" height="78" as="geometry" />
        </mxCell>
        <mxCell id="d8O3bmcDUkVZxXgSkSSW-94" value="" style="triangle;whiteSpace=wrap;html=1;" vertex="1" parent="d8O3bmcDUkVZxXgSkSSW-92">
          <mxGeometry y="51" width="16" height="21" as="geometry" />
        </mxCell>
        <mxCell id="d8O3bmcDUkVZxXgSkSSW-95" style="edgeStyle=none;curved=1;rounded=0;orthogonalLoop=1;jettySize=auto;html=1;entryX=0;entryY=0.5;entryDx=0;entryDy=0;fontSize=12;startSize=8;endSize=8;" edge="1" parent="1" source="d8O3bmcDUkVZxXgSkSSW-78" target="d8O3bmcDUkVZxXgSkSSW-93">
          <mxGeometry relative="1" as="geometry" />
        </mxCell>
        <mxCell id="d8O3bmcDUkVZxXgSkSSW-102" value="" style="endArrow=classic;html=1;rounded=0;fontSize=12;startSize=8;endSize=8;curved=0;entryX=0.347;entryY=1;entryDx=0;entryDy=0;entryPerimeter=0;" edge="1" parent="1">
          <mxGeometry width="50" height="50" relative="1" as="geometry">
            <mxPoint x="718" y="105" as="sourcePoint" />
            <mxPoint x="791" y="219.98399999999998" as="targetPoint" />
            <Array as="points">
              <mxPoint x="718" y="220" />
            </Array>
          </mxGeometry>
        </mxCell>
        <mxCell id="d8O3bmcDUkVZxXgSkSSW-104" value="" style="group" vertex="1" connectable="0" parent="1">
          <mxGeometry x="1066" y="715" width="75" height="132" as="geometry" />
        </mxCell>
        <mxCell id="d8O3bmcDUkVZxXgSkSSW-105" value="" style="rounded=0;whiteSpace=wrap;html=1;" vertex="1" parent="d8O3bmcDUkVZxXgSkSSW-104">
          <mxGeometry width="75" height="132" as="geometry" />
        </mxCell>
        <mxCell id="d8O3bmcDUkVZxXgSkSSW-108" style="edgeStyle=none;curved=1;rounded=0;orthogonalLoop=1;jettySize=auto;html=1;fontSize=12;startSize=8;endSize=8;entryX=-0.003;entryY=0.834;entryDx=0;entryDy=0;entryPerimeter=0;" edge="1" parent="1" target="d8O3bmcDUkVZxXgSkSSW-105">
          <mxGeometry relative="1" as="geometry">
            <mxPoint x="1063" y="825" as="targetPoint" />
            <mxPoint x="590" y="825" as="sourcePoint" />
          </mxGeometry>
        </mxCell>
        <mxCell id="d8O3bmcDUkVZxXgSkSSW-109" style="edgeStyle=none;curved=1;rounded=0;orthogonalLoop=1;jettySize=auto;html=1;fontSize=12;startSize=8;endSize=8;entryX=-0.004;entryY=0.704;entryDx=0;entryDy=0;entryPerimeter=0;" edge="1" parent="1">
          <mxGeometry relative="1" as="geometry">
            <mxPoint x="1065.7000000000003" y="812.928" as="targetPoint" />
            <mxPoint x="590" y="813" as="sourcePoint" />
          </mxGeometry>
        </mxCell>
        <mxCell id="d8O3bmcDUkVZxXgSkSSW-110" style="edgeStyle=none;curved=1;rounded=0;orthogonalLoop=1;jettySize=auto;html=1;fontSize=12;startSize=8;endSize=8;entryX=-0.002;entryY=0.585;entryDx=0;entryDy=0;entryPerimeter=0;" edge="1" parent="1">
          <mxGeometry relative="1" as="geometry">
            <mxPoint x="1065.8500000000001" y="800.22" as="targetPoint" />
            <mxPoint x="590" y="800" as="sourcePoint" />
          </mxGeometry>
        </mxCell>
        <mxCell id="d8O3bmcDUkVZxXgSkSSW-106" value="" style="triangle;whiteSpace=wrap;html=1;" vertex="1" parent="1">
          <mxGeometry x="1066" y="805.9976923076923" width="21.428571428571427" height="35.53846153846154" as="geometry" />
        </mxCell>
        <mxCell id="d8O3bmcDUkVZxXgSkSSW-113" style="edgeStyle=none;curved=1;rounded=0;orthogonalLoop=1;jettySize=auto;html=1;fontSize=12;startSize=8;endSize=8;" edge="1" parent="1">
          <mxGeometry relative="1" as="geometry">
            <mxPoint x="652.128169133113" y="747" as="targetPoint" />
            <mxPoint x="590" y="747" as="sourcePoint" />
          </mxGeometry>
        </mxCell>
        <mxCell id="d8O3bmcDUkVZxXgSkSSW-114" style="edgeStyle=none;curved=1;rounded=0;orthogonalLoop=1;jettySize=auto;html=1;fontSize=12;startSize=8;endSize=8;" edge="1" parent="1">
          <mxGeometry relative="1" as="geometry">
            <mxPoint x="652.128169133113" y="735" as="targetPoint" />
            <mxPoint x="590" y="735" as="sourcePoint" />
          </mxGeometry>
        </mxCell>
        <mxCell id="d8O3bmcDUkVZxXgSkSSW-115" style="edgeStyle=none;curved=1;rounded=0;orthogonalLoop=1;jettySize=auto;html=1;fontSize=12;startSize=8;endSize=8;" edge="1" parent="1">
          <mxGeometry relative="1" as="geometry">
            <mxPoint x="652.128169133113" y="723" as="targetPoint" />
            <mxPoint x="590" y="723" as="sourcePoint" />
          </mxGeometry>
        </mxCell>
        <mxCell id="d8O3bmcDUkVZxXgSkSSW-116" style="edgeStyle=none;curved=1;rounded=0;orthogonalLoop=1;jettySize=auto;html=1;fontSize=12;startSize=8;endSize=8;" edge="1" parent="1">
          <mxGeometry relative="1" as="geometry">
            <mxPoint x="652.128169133113" y="759" as="targetPoint" />
            <mxPoint x="590" y="759" as="sourcePoint" />
          </mxGeometry>
        </mxCell>
        <mxCell id="d8O3bmcDUkVZxXgSkSSW-117" style="edgeStyle=none;curved=1;rounded=0;orthogonalLoop=1;jettySize=auto;html=1;fontSize=12;startSize=8;endSize=8;" edge="1" parent="1">
          <mxGeometry relative="1" as="geometry">
            <mxPoint x="652.128169133113" y="783" as="targetPoint" />
            <mxPoint x="590" y="783" as="sourcePoint" />
          </mxGeometry>
        </mxCell>
        <mxCell id="d8O3bmcDUkVZxXgSkSSW-129" style="edgeStyle=none;curved=1;rounded=0;orthogonalLoop=1;jettySize=auto;html=1;entryX=0.877;entryY=0.928;entryDx=0;entryDy=0;fontSize=12;startSize=8;endSize=8;exitX=0.993;exitY=0.092;exitDx=0;exitDy=0;exitPerimeter=0;entryPerimeter=0;" edge="1" parent="1" target="d8O3bmcDUkVZxXgSkSSW-122">
          <mxGeometry relative="1" as="geometry">
            <mxPoint x="1311.321" y="281.984" as="sourcePoint" />
            <mxPoint x="1423.2820000000002" y="279.00399999999985" as="targetPoint" />
          </mxGeometry>
        </mxCell>
        <mxCell id="d8O3bmcDUkVZxXgSkSSW-119" value="" style="rounded=0;whiteSpace=wrap;html=1;" vertex="1" parent="1">
          <mxGeometry x="1213" y="257" width="97" height="173" as="geometry" />
        </mxCell>
        <mxCell id="d8O3bmcDUkVZxXgSkSSW-120" style="edgeStyle=none;curved=1;rounded=0;orthogonalLoop=1;jettySize=auto;html=1;entryX=0.006;entryY=0.214;entryDx=0;entryDy=0;entryPerimeter=0;fontSize=12;startSize=8;endSize=8;" edge="1" parent="1" source="d8O3bmcDUkVZxXgSkSSW-89" target="d8O3bmcDUkVZxXgSkSSW-119">
          <mxGeometry relative="1" as="geometry" />
        </mxCell>
        <mxCell id="d8O3bmcDUkVZxXgSkSSW-137" style="edgeStyle=none;curved=0;rounded=0;orthogonalLoop=1;jettySize=auto;html=1;entryX=0;entryY=0.5;entryDx=0;entryDy=0;fontSize=12;startSize=8;endSize=8;" edge="1" parent="1" source="d8O3bmcDUkVZxXgSkSSW-122" target="d8O3bmcDUkVZxXgSkSSW-49">
          <mxGeometry relative="1" as="geometry">
            <Array as="points">
              <mxPoint x="1487" y="194" />
              <mxPoint x="1489" y="552" />
              <mxPoint x="441" y="548" />
              <mxPoint x="441" y="267" />
            </Array>
          </mxGeometry>
        </mxCell>
        <mxCell id="d8O3bmcDUkVZxXgSkSSW-122" value="" style="shape=trapezoid;perimeter=trapezoidPerimeter;whiteSpace=wrap;html=1;fixedSize=1;rotation=90;container=0;" vertex="1" parent="1">
          <mxGeometry x="1318" y="182" width="232" height="23" as="geometry" />
        </mxCell>
        <mxCell id="d8O3bmcDUkVZxXgSkSSW-126" style="edgeStyle=none;curved=1;rounded=0;orthogonalLoop=1;jettySize=auto;html=1;fontSize=12;startSize=8;endSize=8;" edge="1" parent="1" source="d8O3bmcDUkVZxXgSkSSW-123">
          <mxGeometry relative="1" as="geometry">
            <mxPoint x="1420.0528302873884" y="104" as="targetPoint" />
          </mxGeometry>
        </mxCell>
        <mxCell id="d8O3bmcDUkVZxXgSkSSW-123" value="" style="rounded=0;whiteSpace=wrap;html=1;" vertex="1" parent="1">
          <mxGeometry x="1240" y="88.5" width="47" height="31" as="geometry" />
        </mxCell>
        <mxCell id="d8O3bmcDUkVZxXgSkSSW-125" style="edgeStyle=none;curved=1;rounded=0;orthogonalLoop=1;jettySize=auto;html=1;entryX=0;entryY=0.5;entryDx=0;entryDy=0;fontSize=12;startSize=8;endSize=8;" edge="1" parent="1" source="d8O3bmcDUkVZxXgSkSSW-93" target="d8O3bmcDUkVZxXgSkSSW-123">
          <mxGeometry relative="1" as="geometry" />
        </mxCell>
        <mxCell id="d8O3bmcDUkVZxXgSkSSW-127" style="edgeStyle=none;curved=0;rounded=0;orthogonalLoop=1;jettySize=auto;html=1;fontSize=12;startSize=8;endSize=8;exitX=1;exitY=0.5;exitDx=0;exitDy=0;" edge="1" parent="1" source="d8O3bmcDUkVZxXgSkSSW-89">
          <mxGeometry relative="1" as="geometry">
            <mxPoint x="1123" y="278.6414141414142" as="sourcePoint" />
            <mxPoint x="1421" y="182" as="targetPoint" />
            <Array as="points">
              <mxPoint x="1194" y="294" />
              <mxPoint x="1194" y="183" />
            </Array>
          </mxGeometry>
        </mxCell>
        <mxCell id="d8O3bmcDUkVZxXgSkSSW-132" value="" style="group" vertex="1" connectable="0" parent="1">
          <mxGeometry x="1066" y="600" width="56" height="78" as="geometry" />
        </mxCell>
        <mxCell id="d8O3bmcDUkVZxXgSkSSW-133" value="" style="rounded=0;whiteSpace=wrap;html=1;" vertex="1" parent="d8O3bmcDUkVZxXgSkSSW-132">
          <mxGeometry width="56" height="78" as="geometry" />
        </mxCell>
        <mxCell id="d8O3bmcDUkVZxXgSkSSW-134" value="" style="triangle;whiteSpace=wrap;html=1;" vertex="1" parent="d8O3bmcDUkVZxXgSkSSW-132">
          <mxGeometry y="51" width="16" height="21" as="geometry" />
        </mxCell>
        <mxCell id="d8O3bmcDUkVZxXgSkSSW-135" value="" style="endArrow=classic;html=1;rounded=0;fontSize=12;startSize=8;endSize=8;curved=1;entryX=0;entryY=0.5;entryDx=0;entryDy=0;" edge="1" parent="1" target="d8O3bmcDUkVZxXgSkSSW-133">
          <mxGeometry width="50" height="50" relative="1" as="geometry">
            <mxPoint x="431" y="636" as="sourcePoint" />
            <mxPoint x="795" y="593" as="targetPoint" />
          </mxGeometry>
        </mxCell>
        <mxCell id="d8O3bmcDUkVZxXgSkSSW-136" style="edgeStyle=none;curved=0;rounded=0;orthogonalLoop=1;jettySize=auto;html=1;exitX=1;exitY=0.5;exitDx=0;exitDy=0;entryX=0;entryY=0.75;entryDx=0;entryDy=0;fontSize=12;startSize=8;endSize=8;" edge="1" parent="1" source="d8O3bmcDUkVZxXgSkSSW-133" target="d8O3bmcDUkVZxXgSkSSW-49">
          <mxGeometry relative="1" as="geometry">
            <Array as="points">
              <mxPoint x="1181" y="639" />
              <mxPoint x="1181" y="579" />
              <mxPoint x="456" y="575" />
              <mxPoint x="458" y="309" />
            </Array>
          </mxGeometry>
        </mxCell>
        <mxCell id="d8O3bmcDUkVZxXgSkSSW-138" value="" style="rounded=0;whiteSpace=wrap;html=1;" vertex="1" parent="1">
          <mxGeometry x="789" y="455" width="58" height="42" as="geometry" />
        </mxCell>
        <mxCell id="d8O3bmcDUkVZxXgSkSSW-139" value="" style="endArrow=classic;html=1;rounded=0;fontSize=12;startSize=8;endSize=8;curved=0;entryX=-0.004;entryY=0.715;entryDx=0;entryDy=0;entryPerimeter=0;" edge="1" parent="1" target="d8O3bmcDUkVZxXgSkSSW-138">
          <mxGeometry width="50" height="50" relative="1" as="geometry">
            <mxPoint x="715" y="251" as="sourcePoint" />
            <mxPoint x="743" y="485.5" as="targetPoint" />
            <Array as="points">
              <mxPoint x="715" y="485" />
            </Array>
          </mxGeometry>
        </mxCell>
        <mxCell id="d8O3bmcDUkVZxXgSkSSW-141" value="" style="group" vertex="1" connectable="0" parent="1">
          <mxGeometry x="1063" y="379.5" width="56" height="78" as="geometry" />
        </mxCell>
        <mxCell id="d8O3bmcDUkVZxXgSkSSW-142" value="" style="rounded=0;whiteSpace=wrap;html=1;" vertex="1" parent="d8O3bmcDUkVZxXgSkSSW-141">
          <mxGeometry width="56" height="78" as="geometry" />
        </mxCell>
        <mxCell id="d8O3bmcDUkVZxXgSkSSW-143" value="" style="triangle;whiteSpace=wrap;html=1;" vertex="1" parent="d8O3bmcDUkVZxXgSkSSW-141">
          <mxGeometry y="51" width="16" height="21" as="geometry" />
        </mxCell>
        <mxCell id="d8O3bmcDUkVZxXgSkSSW-144" style="edgeStyle=none;curved=1;rounded=0;orthogonalLoop=1;jettySize=auto;html=1;fontSize=12;startSize=8;endSize=8;exitX=1.01;exitY=0.224;exitDx=0;exitDy=0;exitPerimeter=0;entryX=0.011;entryY=0.811;entryDx=0;entryDy=0;entryPerimeter=0;" edge="1" parent="1" source="d8O3bmcDUkVZxXgSkSSW-142" target="d8O3bmcDUkVZxXgSkSSW-119">
          <mxGeometry relative="1" as="geometry">
            <mxPoint x="1210" y="414" as="targetPoint" />
            <Array as="points" />
          </mxGeometry>
        </mxCell>
        <mxCell id="d8O3bmcDUkVZxXgSkSSW-145" value="" style="endArrow=classic;html=1;rounded=0;fontSize=12;startSize=8;endSize=8;curved=0;entryX=0.021;entryY=0.403;entryDx=0;entryDy=0;entryPerimeter=0;" edge="1" parent="1" target="d8O3bmcDUkVZxXgSkSSW-138">
          <mxGeometry width="50" height="50" relative="1" as="geometry">
            <mxPoint x="762" y="420" as="sourcePoint" />
            <mxPoint x="782" y="405" as="targetPoint" />
            <Array as="points">
              <mxPoint x="763" y="472" />
            </Array>
          </mxGeometry>
        </mxCell>
        <mxCell id="d8O3bmcDUkVZxXgSkSSW-146" value="" style="endArrow=classic;html=1;rounded=0;fontSize=12;startSize=8;endSize=8;curved=0;entryX=0.75;entryY=1;entryDx=0;entryDy=0;" edge="1" parent="1" target="d8O3bmcDUkVZxXgSkSSW-33">
          <mxGeometry width="50" height="50" relative="1" as="geometry">
            <mxPoint x="1166" y="293" as="sourcePoint" />
            <mxPoint x="1191" y="161" as="targetPoint" />
            <Array as="points">
              <mxPoint x="1167" y="165" />
              <mxPoint x="27" y="163" />
              <mxPoint x="27" y="397" />
            </Array>
          </mxGeometry>
        </mxCell>
      </root>
    </mxGraphModel>
  </diagram>
</mxfile>
